<?xml version="1.0"?>
<svg xmlns="http://www.w3.org/2000/svg" xmlns:xlink="http://www.w3.org/1999/xlink" xmlns:svgjs="http://svgjs.com/svgjs" version="1.1" width="512" height="512" x="0" y="0" viewBox="0 0 512 512" style="enable-background:new 0 0 512 512" xml:space="preserve" class=""><g><path xmlns="http://www.w3.org/2000/svg" d="m512 256c0 141.386719-114.613281 256-256 256s-256-114.613281-256-256 114.613281-256 256-256 256 114.613281 256 256zm0 0" fill="#d4aa51" data-original="#addb31" style="" class=""/><path xmlns="http://www.w3.org/2000/svg" d="m199.503906 358.335938-110.449218-107.488282 68.65625-66.816406 41.792968 40.671875 138.785156-135.039063 68.65625 66.816407zm0 0" fill="#ffffff" data-original="#ffffff" style="" class=""/><g xmlns="http://www.w3.org/2000/svg" fill="#6fbb2e"><path d="m144 384h96c8.835938 0 16 7.164062 16 16s-7.164062 16-16 16h-96c-8.835938 0-16-7.164062-16-16s7.164062-16 16-16zm0 0" fill="#d4aa51" data-original="#6fbb2e" style="" class=""/><path d="m288 384h32v32h-32zm0 0" fill="#d4aa51" data-original="#6fbb2e" style="" class=""/><path d="m352 384h32v32h-32zm0 0" fill="#d4aa51" data-original="#6fbb2e" style="" class=""/></g></g></svg>
