<?xml version="1.0" encoding="iso-8859-1"?>
<!-- Generator: Adobe Illustrator 17.1.0, SVG Export Plug-In . SVG Version: 6.00 Build 0)  -->
<!DOCTYPE svg PUBLIC "-//W3C//DTD SVG 1.1//EN" "http://www.w3.org/Graphics/SVG/1.1/DTD/svg11.dtd">
<svg version="1.1" fill="#ff7643" id="Capa_1" xmlns="http://www.w3.org/2000/svg" xmlns:xlink="http://www.w3.org/1999/xlink" x="0px" y="0px"
	width="20px" height="20px"
	 viewBox="0 0 438 438" style="enable-background:new 0 0 438 438;" xml:space="preserve">
<path d="M316.198,66.434C309.771,25.098,273.763,0,219.001,0c-54.763,0-90.772,25.098-97.199,66.434
	c-28.08,26.614-44.129,63.79-44.129,102.497V428c0,5.523,4.477,10,10,10c5.523,0,10-4.477,10-10V168.931
	c0-25.67,8.227-50.559,23.088-71.089v103.783c0,23.336,8.185,44.794,21.827,61.666c0.216,0.301,0.452,0.59,0.704,0.87
	c18.034,21.794,45.278,35.703,75.709,35.703c30.213,0,57.279-13.713,75.315-35.238c0.522-0.511,0.974-1.07,1.361-1.662
	c13.484-16.821,21.563-38.152,21.563-61.338V97.842c14.861,20.53,23.088,45.419,23.088,71.089V428c0,5.523,4.477,10,10,10
	c5.523,0,10-4.477,10-10V168.931C360.328,130.224,344.278,93.048,316.198,66.434z M140.76,80.184
	C140.76,25.864,195.476,20,219.001,20c23.524,0,78.239,5.864,78.239,60.184v121.441c0,14.588-4.025,28.25-11.006,39.953
	c-18.112-17.295-41.988-27.01-67.233-27.01c-25.243,0-49.122,9.715-67.234,27.011c-6.981-11.703-11.006-25.365-11.006-39.954V80.184
	z M164.196,257.393c14.571-14.596,34.12-22.825,54.805-22.825c20.686,0,40.234,8.229,54.804,22.825
	c-14.127,13.885-33.478,22.471-54.804,22.471C197.675,279.863,178.324,271.277,164.196,257.393z"/>
<g>
</g>
<g>
</g>
<g>
</g>
<g>
</g>
<g>
</g>
<g>
</g>
<g>
</g>
<g>
</g>
<g>
</g>
<g>
</g>
<g>
</g>
<g>
</g>
<g>
</g>
<g>
</g>
<g>
</g>
</svg>
