<svg id="Layer_1_1_" enable-background="new 0 0 64 64" height="512" viewBox="0 0 64 64" width="512" xmlns="http://www.w3.org/2000/svg"><path d="m9 15c2.97223 0 5.43304-2.16339 5.91003-5h11.6759l-1.29297 1.29297 1.41406 1.41406 3.70704-3.70703-3.70703-3.70703-1.41406 1.41406 1.29297 1.29297h-11.6759c-.477-2.83661-2.93781-5-5.91004-5-3.31372 0-6 2.68628-6 6s2.68628 6 6 6z"/><path d="m49.5 8h-6.58997c-.47699-2.83661-2.9378-5-5.91003-5-3.31372 0-6 2.68628-6 6s2.68628 6 6 6c2.97223 0 5.43304-2.16339 5.91003-5h6.58997c5.79004 0 10.5 4.71045 10.5 10.5s-4.70996 10.5-10.5 10.5h-16.08594l1.29297-1.29297-1.41406-1.41406-3.70703 3.70703 3.70703 3.70703 1.41406-1.41406-1.29297-1.29297h16.08594c6.89258 0 12.5-5.60742 12.5-12.5s-5.60742-12.5-12.5-12.5z"/><circle cx="55" cy="55" r="6"/><path d="m27 49c-3.31372 0-6 2.68628-6 6s2.68628 6 6 6c2.97223 0 5.43304-2.16339 5.91003-5h11.6759l-1.29297 1.29297 1.41406 1.41406 3.70704-3.70703-3.70703-3.70703-1.41406 1.41406 1.29297 1.29297h-11.6759c-.477-2.83661-2.93781-5-5.91004-5z"/><path d="m14.5 56h2.08594l-1.29297 1.29297 1.41406 1.41406 3.70703-3.70703-3.70703-3.70703-1.41406 1.41406 1.29297 1.29297h-2.08594c-5.79004 0-10.5-4.71045-10.5-10.5s4.70996-10.5 10.5-10.5h2.58997c.47699 2.83661 2.93781 5 5.91003 5 3.31372 0 6-2.68628 6-6s-2.68628-6-6-6c-2.97223 0-5.43304 2.16339-5.91003 5h-2.58997c-6.89258 0-12.5 5.60742-12.5 12.5s5.60742 12.5 12.5 12.5z"/></svg>